<svg width="177" height="44" viewBox="0 0 177 44" fill="none" xmlns="http://www.w3.org/2000/svg">
<path d="M56.7193 18.0717C57.6978 16.4269 59.0277 15.143 60.7078 14.2185C62.3878 13.2948 64.2274 12.8325 66.2272 12.8325C68.5152 12.8325 70.5509 13.3862 72.3342 14.4925C74.1171 15.5996 75.4108 17.1681 76.2148 19.1985H71.9786C71.4219 18.0819 70.6491 17.2489 69.6594 16.7005C68.6701 16.1521 67.5259 15.8781 66.2272 15.8781C64.8049 15.8781 63.537 16.1935 62.4241 16.8223C61.3107 17.452 60.4396 18.356 59.8113 19.5332C59.1822 20.7112 58.8682 22.082 58.8682 23.6452C58.8682 25.2084 59.1822 26.58 59.8113 27.7573C60.4396 28.9353 61.3107 29.8438 62.4241 30.4833C63.537 31.1232 64.8049 31.4427 66.2272 31.4427C67.5259 31.4427 68.6697 31.1683 69.6594 30.6203C70.6487 30.0719 71.4219 29.2396 71.9786 28.1223H76.2148C75.4108 30.1531 74.1171 31.7167 72.3342 32.8131C70.5509 33.9095 68.5152 34.4579 66.2272 34.4579C64.207 34.4579 62.362 33.9965 60.6924 33.072C59.0227 32.1482 57.6978 30.8636 56.7193 29.2188C55.74 27.574 55.2507 25.7159 55.2507 23.6445C55.2507 21.5731 55.74 19.7154 56.7193 18.0702V18.0717Z" fill="#F9F9F9"/>
<path d="M79.0128 21.3309C79.724 20.0314 80.6925 19.0212 81.9191 18.3001C83.1454 17.5798 84.501 17.2189 85.9854 17.2189C87.3249 17.2189 88.4945 17.4777 89.4946 17.9957C90.4944 18.5138 91.293 19.1586 91.8909 19.9301V17.4933H95.4467V34.2765H91.8909V31.7785C91.2926 32.5706 90.4789 33.2305 89.4484 33.7584C88.4171 34.2863 87.2425 34.5505 85.9234 34.5505C84.4594 34.5505 83.1199 34.1801 81.9037 33.4385C80.6871 32.6973 79.724 31.662 79.0128 30.3314C78.3016 29.0016 77.946 27.4938 77.946 25.8084C77.946 24.123 78.3016 22.6304 79.0128 21.3309ZM91.1643 22.8539C90.6797 22.0011 90.0459 21.3514 89.2627 20.9043C88.4791 20.458 87.6343 20.2345 86.727 20.2345C85.8197 20.2345 84.9749 20.4531 84.1917 20.8891C83.4077 21.326 82.774 21.9658 82.2901 22.808C81.8055 23.6512 81.5635 24.6509 81.5635 25.8084C81.5635 26.9659 81.8055 27.9815 82.2901 28.8544C82.774 29.7276 83.4131 30.3925 84.2071 30.8495C85.0003 31.3064 85.8405 31.5349 86.727 31.5349C87.6135 31.5349 88.4791 31.3117 89.2627 30.8646C90.0459 30.4183 90.6797 29.7633 91.1643 28.8999C91.6482 28.0373 91.8909 27.0266 91.8909 25.8695C91.8909 24.7124 91.6485 23.7067 91.1643 22.8539Z" fill="#F9F9F9"/>
<path d="M110.606 18.0413C111.667 18.5897 112.496 19.4018 113.095 20.4781C113.692 21.5548 113.992 22.8539 113.992 24.3769V34.2765H110.497V24.8949C110.497 23.3924 110.116 22.2402 109.354 21.4375C108.591 20.6356 107.549 20.2345 106.23 20.2345C104.911 20.2345 103.865 20.6356 103.092 21.4375C102.319 22.2402 101.932 23.3924 101.932 24.8949V34.2765H98.4075V17.4933H101.932V19.4121C102.509 18.7221 103.247 18.1836 104.143 17.7976C105.04 17.412 105.993 17.2189 107.003 17.2189C108.343 17.2189 109.543 17.4933 110.606 18.0413Z" fill="#F9F9F9"/>
<path d="M116.689 21.3309C117.401 20.0315 118.369 19.0212 119.596 18.3001C120.822 17.5798 122.188 17.2189 123.693 17.2189C124.806 17.2189 125.904 17.4576 126.986 17.9347C128.068 18.4121 128.929 19.0466 129.568 19.8383V11.7361H133.124V34.2765H129.568V31.7482C128.991 32.5607 128.192 33.2306 127.172 33.7585C126.151 34.2864 124.981 34.5505 123.662 34.5505C122.178 34.5505 120.822 34.1801 119.596 33.4385C118.369 32.6974 117.401 31.662 116.69 30.3315C115.979 29.0017 115.623 27.4938 115.623 25.8084C115.623 24.123 115.979 22.6304 116.69 21.3309H116.689ZM128.841 22.8539C128.356 22.0012 127.723 21.3514 126.939 20.9044C126.156 20.4581 125.311 20.2345 124.404 20.2345C123.496 20.2345 122.652 20.4531 121.868 20.8892C121.084 21.326 120.451 21.9659 119.967 22.808C119.482 23.6513 119.24 24.6509 119.24 25.8084C119.24 26.9659 119.482 27.9815 119.967 28.8544C120.451 29.7277 121.09 30.3926 121.884 30.8495C122.677 31.3064 123.517 31.5349 124.404 31.5349C125.29 31.5349 126.156 31.3118 126.939 30.8647C127.723 30.4184 128.356 29.7633 128.841 28.8999C129.325 28.0373 129.567 27.0267 129.567 25.8695C129.567 24.7124 129.325 23.7067 128.841 22.8539Z" fill="#F9F9F9"/>
<path d="M135.798 14.6299C135.366 14.2033 135.149 13.6758 135.149 13.0458C135.149 12.4158 135.366 11.8883 135.798 11.4617C136.231 11.0355 136.767 10.8222 137.406 10.8222C138.046 10.8222 138.551 11.0355 138.984 11.4617C139.416 11.8883 139.633 12.4165 139.633 13.0458C139.633 13.675 139.416 14.2033 138.984 14.6299C138.551 15.0564 138.025 15.2693 137.406 15.2693C136.788 15.2693 136.231 15.0564 135.798 14.6299ZM139.138 17.4933V34.2765H135.613V17.4933H139.138Z" fill="#F9F9F9"/>
<path d="M141.991 21.3309C142.702 20.0315 143.67 19.0212 144.897 18.3001C146.123 17.5798 147.489 17.2189 148.994 17.2189C150.107 17.2189 151.205 17.4576 152.287 17.9347C153.369 18.4121 154.23 19.0466 154.869 19.8383V11.7361H158.425V34.2765H154.869V31.7482C154.292 32.5607 153.493 33.2306 152.473 33.7585C151.453 34.2864 150.282 34.5505 148.964 34.5505C147.48 34.5505 146.124 34.1801 144.897 33.4385C143.671 32.6974 142.702 31.662 141.991 30.3315C141.28 29.0017 140.924 27.4938 140.924 25.8084C140.924 24.123 141.28 22.6304 141.991 21.3309H141.991ZM154.142 22.8539C153.657 22.0012 153.024 21.3514 152.24 20.9044C151.457 20.4581 150.612 20.2345 149.705 20.2345C148.798 20.2345 147.953 20.4531 147.169 20.8892C146.385 21.326 145.752 21.9659 145.268 22.808C144.783 23.6513 144.541 24.6509 144.541 25.8084C144.541 26.9659 144.783 27.9815 145.268 28.8544C145.752 29.7277 146.391 30.3926 147.185 30.8495C147.978 31.3064 148.818 31.5349 149.705 31.5349C150.591 31.5349 151.457 31.3118 152.24 30.8647C153.024 30.4184 153.657 29.7633 154.142 28.8999C154.626 28.0373 154.869 27.0267 154.869 25.8695C154.869 24.7124 154.626 23.7067 154.142 22.8539Z" fill="#F9F9F9"/>
<path d="M176.876 27.1792H163.859C163.962 28.5193 164.467 29.5959 165.374 30.4077C166.28 31.2203 167.394 31.626 168.713 31.626C170.609 31.626 171.949 30.8445 172.733 29.2806H176.536C176.021 30.8241 175.088 32.0882 173.738 33.073C172.388 34.0583 170.713 34.5505 168.714 34.5505C167.085 34.5505 165.626 34.19 164.338 33.4689C163.05 32.7486 162.04 31.733 161.308 30.4229C160.576 29.1132 160.211 27.5955 160.211 25.8691C160.211 24.1427 160.566 22.6251 161.278 21.3154C161.989 20.0057 162.989 18.9954 164.277 18.2846C165.565 17.5741 167.044 17.2185 168.714 17.2185C170.384 17.2185 171.754 17.5642 173.012 18.2542C174.269 18.9449 175.248 19.9142 175.949 21.1632C176.65 22.4118 177.001 23.849 177.001 25.4733C177.001 26.1033 176.959 26.6718 176.877 27.1792H176.876ZM173.32 24.3769C173.3 23.0975 172.836 22.0725 171.929 21.3005C171.022 20.529 169.898 20.143 168.559 20.143C167.342 20.143 166.302 20.5237 165.436 21.2854C164.57 22.0471 164.054 23.0778 163.89 24.3773H173.32V24.3769Z" fill="#F9F9F9"/>
<path d="M44.6649 6.96217V44H7.06738C3.16675 44 3.8147e-06 40.8804 3.8147e-06 37.0378V0L37.5975 0C41.4982 0 44.6649 3.1196 44.6649 6.96217Z" fill="url(#paint0_linear_476_388)"/>
<path d="M41.0724 14.075C41.0724 24.271 32.6825 32.5361 22.3324 32.5361C22.3324 22.34 30.7231 14.075 41.0724 14.075Z" fill="black"/>
<path d="M22.3324 21.0372V32.5361C11.9831 32.5361 3.59241 24.271 3.59241 14.075H15.265C19.1684 14.075 22.3324 17.192 22.3324 21.0372Z" fill="black"/>
<defs>
<linearGradient id="paint0_linear_476_388" x1="-0.482328" y1="-0.574964" x2="44.8067" y2="45.6026" gradientUnits="userSpaceOnUse">
<stop stop-color="#E70073"/>
<stop offset="0.29" stop-color="#E70B5A"/>
<stop offset="0.75" stop-color="#E71B3A"/>
<stop offset="1" stop-color="#E8212E"/>
</linearGradient>
</defs>
</svg>
